<?xml version="1.0" encoding="utf-8"?>
<!-- Generator: Adobe Adobe Illustrator 24.2.0, SVG Export Plug-In . SVG Version: 6.00 Build 0)  -->
<svg version="1.1" id="Layer_1" xmlns="http://www.w3.org/2000/svg" xmlns:xlink="http://www.w3.org/1999/xlink" x="0px" y="0px"
	 width="800px" height="800px" viewBox="0 0 800 800" style="enable-background:new 0 0 800 800;" xml:space="preserve">
<style type="text/css">
	.st0{fill:#FFDFA8;}
</style>
<path class="st0" d="M624,133.3H179c-5.7-0.3-11.5,0.6-16.9,2.5c-5.4,1.9-10.4,4.9-14.6,8.8c-4.2,3.9-7.7,8.5-10.1,13.7
	c-2.4,5.2-3.8,10.8-4.1,16.6v446c0.3,12,5.3,23.4,13.7,31.9c8.5,8.5,19.9,13.4,31.9,13.8h445c11.7-0.5,22.7-5.6,30.7-14.1
	s12.3-19.9,12-31.5V175c0.1-5.6-0.9-11.1-3.1-16.3c-2.1-5.2-5.3-9.8-9.3-13.7c-4-3.9-8.7-6.9-14-8.9
	C635.1,134,629.6,133.1,624,133.3z M300,578h-77.7V340.3H300V578z M263,304.3c-5.4,0.2-10.8-0.7-15.9-2.7c-5-2-9.6-5-13.4-8.9
	c-3.8-3.9-6.8-8.4-8.8-13.5c-2-5.1-2.8-10.5-2.6-15.9c-0.2-5.5,0.7-10.9,2.7-16c2-5.1,5-9.7,8.9-13.6c3.9-3.9,8.5-6.9,13.7-8.8
	c5.1-2,10.6-2.8,16.1-2.5c5.4-0.2,10.8,0.7,15.9,2.7c5,2,9.6,5,13.4,8.9c3.8,3.9,6.8,8.4,8.8,13.5c2,5.1,2.8,10.5,2.6,15.9
	c0.2,5.5-0.7,10.9-2.7,16c-2,5.1-5,9.7-8.9,13.6c-3.9,3.9-8.5,6.9-13.7,8.8C273.9,303.8,268.5,304.6,263,304.3z M578,578h-78V448
	c0-31-11-52.3-38.7-52.3c-8.6,0.1-17,2.8-23.9,7.8c-7,5-12.2,12.1-15.1,20.2c-2.2,6.1-3.1,12.5-2.7,19V578H343V340.3h76.7v33.3
	c6.8-12.5,17-22.9,29.3-30c12.4-7.1,26.4-10.7,40.7-10.3c50.3,0,88.3,33.3,88.3,104.3V578z"/>
</svg>
